# Blender v2.80 (sub 75) OBJ File: 'surgical_platform.blend'
# www.blender.org
mtllib Suture Practice Platform Small.mtl
o Suture_Practice_Platform_Small
v 1.441698 0.079214 0.038597
v 1.442824 0.049656 0.038597
v 1.408000 0.055618 0.038597
v 1.408037 0.028338 0.038597
v 1.370717 0.038233 0.038597
v 1.370344 0.012725 0.038597
v 1.330981 0.027585 0.038597
v 1.330673 0.003201 0.038597
v 1.290000 0.024000 0.038597
v 1.290000 0.000000 0.038597
v 0.260000 0.024000 0.038597
v 0.260000 0.000000 0.038597
v 0.219019 0.027585 0.038597
v 0.219327 0.003201 0.038597
v 0.179283 0.038233 0.038597
v 0.179656 0.012725 0.038597
v 0.142000 0.055618 0.038597
v 0.141962 0.028338 0.038597
v 0.108302 0.079214 0.038597
v 1.441698 1.070786 0.038597
v 1.473848 1.073848 0.038597
v 1.470786 1.041698 0.038597
v 1.500344 1.042824 0.038597
v 1.494382 1.008000 0.038597
v 1.521662 1.008038 0.038597
v 1.511767 0.970717 0.038597
v 1.537275 0.970344 0.038597
v 1.522415 0.930981 0.038597
v 1.546799 0.930673 0.038597
v 1.526000 0.890000 0.038597
v 1.550000 0.890000 0.038597
v 1.526000 0.260000 0.038597
v 1.550000 0.260000 0.038597
v 1.522415 0.219019 0.038597
v 1.546799 0.219327 0.038597
v 1.511767 0.179283 0.038597
v 1.537275 0.179656 0.038597
v 1.494382 0.142000 0.038597
v 1.521662 0.141962 0.038597
v 1.470786 0.108302 0.038597
v 1.500344 0.107176 0.038597
v 1.473848 0.076152 0.038597
v 0.107176 0.049656 0.038597
v 0.076152 0.076152 0.038597
v 0.079214 0.108302 0.038597
v 0.049656 0.107176 0.038597
v 0.055618 0.142000 0.038597
v 0.028338 0.141962 0.038597
v 0.038233 0.179283 0.038597
v 0.012725 0.179656 0.038597
v 0.027585 0.219019 0.038597
v 0.003201 0.219327 0.038597
v 0.024000 0.260000 0.038597
v 0.000000 0.260000 0.038597
v 0.024000 0.890000 0.038597
v 0.000000 0.890000 0.038597
v 0.027585 0.930981 0.038597
v 0.003201 0.930673 0.038597
v 0.038233 0.970717 0.038597
v 0.012725 0.970344 0.038597
v 0.055618 1.008000 0.038597
v 0.028338 1.008038 0.038597
v 0.079214 1.041698 0.038597
v 0.049656 1.042824 0.038597
v 0.108302 1.070786 0.038597
v 0.076152 1.073848 0.038597
v 0.107176 1.100344 0.038597
v 0.142000 1.094382 0.038597
v 0.141962 1.121662 0.038597
v 0.179283 1.111768 0.038597
v 0.179656 1.137275 0.038597
v 0.219019 1.122415 0.038597
v 0.219327 1.146799 0.038597
v 0.260000 1.126000 0.038597
v 0.260000 1.150000 0.038597
v 1.290000 1.126000 0.038597
v 1.290000 1.150000 0.038597
v 1.330981 1.122415 0.038597
v 1.330673 1.146799 0.038597
v 1.370717 1.111768 0.038597
v 1.370344 1.137275 0.038597
v 1.408000 1.094382 0.038597
v 1.408037 1.121662 0.038597
v 1.442824 1.100344 0.038597
v 1.290000 0.000000 0.238597
v 1.330673 0.003201 0.238597
v 1.370344 0.012725 0.238597
v 1.408037 0.028338 0.238597
v 1.442824 0.049656 0.238597
v 1.473848 0.076152 0.238597
v 1.500344 0.107176 0.238597
v 1.521662 0.141962 0.238597
v 1.537275 0.179656 0.238597
v 1.546799 0.219327 0.238597
v 1.550000 0.260000 0.238597
v 1.550000 0.890000 0.238597
v 1.546799 0.930673 0.238597
v 1.537275 0.970344 0.238597
v 1.521662 1.008038 0.238597
v 1.500344 1.042824 0.238597
v 1.473848 1.073848 0.238597
v 1.442824 1.100344 0.238597
v 1.408037 1.121662 0.238597
v 1.370344 1.137275 0.238597
v 1.330673 1.146799 0.238597
v 1.290000 1.150000 0.238597
v 0.260000 1.150000 0.238597
v 0.219327 1.146799 0.238597
v 0.179656 1.137275 0.238597
v 0.141962 1.121662 0.238597
v 0.107176 1.100344 0.238597
v 0.076152 1.073848 0.238597
v 0.049656 1.042824 0.238597
v 0.028338 1.008038 0.238597
v 0.012725 0.970344 0.238597
v 0.003201 0.930673 0.238597
v 0.000000 0.890000 0.238597
v 0.000000 0.260000 0.238597
v 0.003201 0.219327 0.238597
v 0.012725 0.179656 0.238597
v 0.028338 0.141962 0.238597
v 0.049656 0.107176 0.238597
v 0.076152 0.076152 0.238597
v 0.107176 0.049656 0.238597
v 0.141962 0.028338 0.238597
v 0.179656 0.012725 0.238597
v 0.219327 0.003201 0.238597
v 0.260000 0.000000 0.238597
v 0.260000 0.024000 0.138597
v 0.219019 0.027585 0.138597
v 0.179283 0.038233 0.138597
v 0.142000 0.055618 0.138597
v 0.108302 0.079214 0.138597
v 0.079214 0.108302 0.138597
v 0.055618 0.142000 0.138597
v 0.038233 0.179283 0.138597
v 0.027585 0.219019 0.138597
v 0.024000 0.260000 0.138597
v 1.290000 0.024000 0.138597
v 1.526000 0.260000 0.138597
v 1.522415 0.219019 0.138597
v 1.511767 0.179283 0.138597
v 1.494382 0.142000 0.138597
v 1.470786 0.108302 0.138597
v 1.441698 0.079214 0.138597
v 1.408000 0.055618 0.138597
v 1.370717 0.038233 0.138597
v 1.330981 0.027585 0.138597
v 1.526000 0.890000 0.138597
v 1.290000 1.126000 0.138597
v 1.330981 1.122415 0.138597
v 1.370717 1.111768 0.138597
v 1.408000 1.094382 0.138597
v 1.441698 1.070786 0.138597
v 1.470786 1.041698 0.138597
v 1.494382 1.008000 0.138597
v 1.511767 0.970717 0.138597
v 1.522415 0.930981 0.138597
v 0.260000 1.126000 0.138597
v 0.024000 0.890000 0.138597
v 0.027585 0.930981 0.138597
v 0.038233 0.970717 0.138597
v 0.055618 1.008000 0.138597
v 0.079214 1.041698 0.138597
v 0.108302 1.070786 0.138597
v 0.142000 1.094382 0.138597
v 0.179283 1.111768 0.138597
v 0.219019 1.122415 0.138597
vn 0.0000 0.0000 -1.0000
vn 0.0785 -0.9969 0.0000
vn 0.2334 -0.9724 0.0000
vn 0.3827 -0.9239 0.0000
vn 0.5225 -0.8526 0.0000
vn 0.6494 -0.7604 0.0000
vn 0.7604 -0.6494 0.0000
vn 0.8526 -0.5225 0.0000
vn 0.9239 -0.3827 0.0000
vn 0.9724 -0.2335 0.0000
vn 0.9724 -0.2334 0.0000
vn 0.9969 -0.0785 0.0000
vn 1.0000 0.0000 0.0000
vn 0.9969 0.0785 0.0000
vn 0.9724 0.2334 0.0000
vn 0.9724 0.2335 0.0000
vn 0.9239 0.3827 0.0000
vn 0.8526 0.5225 0.0000
vn 0.7604 0.6494 0.0000
vn 0.6494 0.7604 0.0000
vn 0.5225 0.8526 0.0000
vn 0.3827 0.9239 0.0000
vn 0.2334 0.9724 0.0000
vn 0.0785 0.9969 0.0000
vn 0.0000 1.0000 0.0000
vn -0.0785 0.9969 0.0000
vn -0.2334 0.9724 0.0000
vn -0.3827 0.9239 0.0000
vn -0.5225 0.8526 0.0000
vn -0.6494 0.7604 0.0000
vn -0.7604 0.6494 0.0000
vn -0.8526 0.5225 0.0000
vn -0.9239 0.3827 0.0000
vn -0.9724 0.2334 0.0000
vn -0.9969 0.0785 0.0000
vn -1.0000 0.0000 0.0000
vn -0.9969 -0.0785 0.0000
vn -0.9724 -0.2334 0.0000
vn -0.9239 -0.3827 0.0000
vn -0.8526 -0.5225 0.0000
vn -0.7604 -0.6494 0.0000
vn -0.6494 -0.7604 0.0000
vn -0.5225 -0.8526 0.0000
vn -0.3827 -0.9239 0.0000
vn -0.2334 -0.9724 0.0000
vn -0.0785 -0.9969 0.0000
vn 0.0000 -1.0000 0.0000
vn 0.0000 0.0000 1.0000
vn 0.0872 0.9962 0.0000
vn 0.2588 0.9659 0.0000
vn 0.4226 0.9063 0.0000
vn 0.5736 0.8192 0.0000
vn 0.7071 0.7071 0.0000
vn 0.8192 0.5736 0.0000
vn 0.9063 0.4226 0.0000
vn 0.9659 0.2588 0.0000
vn 0.9962 0.0872 0.0000
vn -0.9962 0.0872 0.0000
vn -0.9659 0.2588 0.0000
vn -0.9063 0.4226 0.0000
vn -0.8192 0.5736 0.0000
vn -0.8191 0.5736 0.0000
vn -0.7071 0.7071 0.0000
vn -0.5736 0.8192 0.0000
vn -0.4226 0.9063 0.0000
vn -0.2588 0.9659 0.0000
vn -0.0872 0.9962 0.0000
vn -0.0872 -0.9962 0.0000
vn -0.2588 -0.9659 0.0000
vn -0.4226 -0.9063 0.0000
vn -0.5736 -0.8192 0.0000
vn -0.7071 -0.7071 0.0000
vn -0.8191 -0.5736 0.0000
vn -0.8192 -0.5736 0.0000
vn -0.9063 -0.4226 0.0000
vn -0.9659 -0.2588 0.0000
vn -0.9962 -0.0872 0.0000
vn 0.9962 -0.0872 0.0000
vn 0.9659 -0.2588 0.0000
vn 0.9063 -0.4226 0.0000
vn 0.8192 -0.5736 0.0000
vn 0.7071 -0.7071 0.0000
vn 0.5736 -0.8192 0.0000
vn 0.4226 -0.9063 0.0000
vn 0.2588 -0.9659 0.0000
vn 0.0872 -0.9962 0.0000
usemtl Material.038
s off
f 1//1 2//1 3//1
f 3//1 2//1 4//1
f 3//1 4//1 5//1
f 5//1 4//1 6//1
f 5//1 6//1 7//1
f 7//1 6//1 8//1
f 7//1 8//1 9//1
f 9//1 8//1 10//1
f 9//1 10//1 11//1
f 11//1 10//1 12//1
f 11//1 12//1 13//1
f 13//1 12//1 14//1
f 13//1 14//1 15//1
f 15//1 14//1 16//1
f 15//1 16//1 17//1
f 17//1 16//1 18//1
f 17//1 18//1 19//1
f 20//1 21//1 22//1
f 22//1 21//1 23//1
f 22//1 23//1 24//1
f 24//1 23//1 25//1
f 24//1 25//1 26//1
f 26//1 25//1 27//1
f 26//1 27//1 28//1
f 28//1 27//1 29//1
f 28//1 29//1 30//1
f 30//1 29//1 31//1
f 30//1 31//1 32//1
f 32//1 31//1 33//1
f 32//1 33//1 34//1
f 34//1 33//1 35//1
f 34//1 35//1 36//1
f 36//1 35//1 37//1
f 36//1 37//1 38//1
f 38//1 37//1 39//1
f 38//1 39//1 40//1
f 40//1 39//1 41//1
f 40//1 41//1 1//1
f 1//1 41//1 42//1
f 1//1 42//1 2//1
f 18//1 43//1 19//1
f 19//1 43//1 44//1
f 19//1 44//1 45//1
f 45//1 44//1 46//1
f 45//1 46//1 47//1
f 47//1 46//1 48//1
f 47//1 48//1 49//1
f 49//1 48//1 50//1
f 49//1 50//1 51//1
f 51//1 50//1 52//1
f 51//1 52//1 53//1
f 53//1 52//1 54//1
f 53//1 54//1 55//1
f 55//1 54//1 56//1
f 55//1 56//1 57//1
f 57//1 56//1 58//1
f 57//1 58//1 59//1
f 59//1 58//1 60//1
f 59//1 60//1 61//1
f 61//1 60//1 62//1
f 61//1 62//1 63//1
f 63//1 62//1 64//1
f 63//1 64//1 65//1
f 64//1 66//1 65//1
f 65//1 66//1 67//1
f 65//1 67//1 68//1
f 68//1 67//1 69//1
f 68//1 69//1 70//1
f 70//1 69//1 71//1
f 70//1 71//1 72//1
f 72//1 71//1 73//1
f 72//1 73//1 74//1
f 74//1 73//1 75//1
f 74//1 75//1 76//1
f 76//1 75//1 77//1
f 76//1 77//1 78//1
f 78//1 77//1 79//1
f 78//1 79//1 80//1
f 80//1 79//1 81//1
f 80//1 81//1 82//1
f 82//1 81//1 83//1
f 82//1 83//1 20//1
f 20//1 83//1 84//1
f 20//1 84//1 21//1
f 85//2 10//2 8//2
f 85//2 8//2 86//2
f 86//3 8//3 6//3
f 86//3 6//3 87//3
f 87//4 6//4 4//4
f 87//4 4//4 88//4
f 88//5 4//5 2//5
f 88//5 2//5 89//5
f 89//6 2//6 42//6
f 89//6 42//6 90//6
f 90//7 42//7 41//7
f 90//7 41//7 91//7
f 91//8 41//8 39//8
f 91//8 39//8 92//8
f 92//9 39//9 37//9
f 92//9 37//9 93//9
f 93//10 37//10 35//10
f 93//11 35//11 94//11
f 94//12 35//12 33//12
f 94//12 33//12 95//12
f 96//13 95//13 31//13
f 31//13 95//13 33//13
f 96//14 31//14 29//14
f 96//14 29//14 97//14
f 97//15 29//15 27//15
f 97//16 27//16 98//16
f 98//17 27//17 25//17
f 98//17 25//17 99//17
f 99//18 25//18 23//18
f 99//18 23//18 100//18
f 100//19 23//19 21//19
f 100//19 21//19 101//19
f 101//20 21//20 84//20
f 101//20 84//20 102//20
f 102//21 84//21 83//21
f 102//21 83//21 103//21
f 103//22 83//22 81//22
f 103//22 81//22 104//22
f 104//23 81//23 79//23
f 104//23 79//23 105//23
f 105//24 79//24 77//24
f 105//24 77//24 106//24
f 107//25 106//25 75//25
f 75//25 106//25 77//25
f 107//26 75//26 73//26
f 107//26 73//26 108//26
f 108//27 73//27 71//27
f 108//27 71//27 109//27
f 109//28 71//28 69//28
f 109//28 69//28 110//28
f 110//29 69//29 67//29
f 110//29 67//29 111//29
f 111//30 67//30 66//30
f 111//30 66//30 112//30
f 112//31 66//31 64//31
f 112//31 64//31 113//31
f 113//32 64//32 62//32
f 113//32 62//32 114//32
f 114//33 62//33 60//33
f 114//33 60//33 115//33
f 115//34 60//34 58//34
f 115//34 58//34 116//34
f 116//35 58//35 56//35
f 116//35 56//35 117//35
f 118//36 117//36 54//36
f 54//36 117//36 56//36
f 118//37 54//37 52//37
f 118//37 52//37 119//37
f 119//38 52//38 50//38
f 119//38 50//38 120//38
f 120//39 50//39 48//39
f 120//39 48//39 121//39
f 121//40 48//40 46//40
f 121//40 46//40 122//40
f 122//41 46//41 44//41
f 122//41 44//41 123//41
f 123//42 44//42 43//42
f 123//42 43//42 124//42
f 124//43 43//43 18//43
f 124//43 18//43 125//43
f 125//44 18//44 16//44
f 125//44 16//44 126//44
f 126//45 16//45 14//45
f 126//45 14//45 127//45
f 127//46 14//46 12//46
f 127//46 12//46 128//46
f 85//47 128//47 10//47
f 10//47 128//47 12//47
f 117//48 118//48 95//48
f 128//48 85//48 95//48
f 120//48 121//48 128//48
f 121//48 122//48 128//48
f 128//48 122//48 123//48
f 128//48 123//48 124//48
f 95//48 118//48 128//48
f 128//48 118//48 119//48
f 128//48 119//48 120//48
f 124//48 125//48 128//48
f 128//48 125//48 126//48
f 128//48 126//48 127//48
f 96//48 97//48 106//48
f 106//48 97//48 98//48
f 106//48 98//48 99//48
f 108//48 109//48 113//48
f 85//48 86//48 95//48
f 95//48 86//48 87//48
f 95//48 87//48 88//48
f 88//48 89//48 95//48
f 95//48 89//48 90//48
f 95//48 90//48 91//48
f 108//48 113//48 107//48
f 107//48 113//48 114//48
f 107//48 114//48 115//48
f 115//48 116//48 107//48
f 107//48 116//48 117//48
f 107//48 117//48 106//48
f 106//48 117//48 95//48
f 106//48 95//48 96//48
f 100//48 104//48 99//48
f 99//48 104//48 105//48
f 99//48 105//48 106//48
f 100//48 101//48 104//48
f 104//48 101//48 102//48
f 104//48 102//48 103//48
f 109//48 110//48 113//48
f 113//48 110//48 111//48
f 113//48 111//48 112//48
f 91//48 92//48 95//48
f 95//48 92//48 93//48
f 95//48 93//48 94//48
f 129//49 11//49 130//49
f 130//49 11//49 13//49
f 130//50 13//50 131//50
f 131//50 13//50 15//50
f 131//51 15//51 132//51
f 132//51 15//51 17//51
f 132//52 17//52 133//52
f 133//52 17//52 19//52
f 133//53 19//53 134//53
f 134//53 19//53 45//53
f 134//54 45//54 135//54
f 135//54 45//54 47//54
f 135//55 47//55 136//55
f 136//55 47//55 49//55
f 136//56 49//56 137//56
f 137//56 49//56 51//56
f 137//57 51//57 138//57
f 138//57 51//57 53//57
f 129//25 139//25 11//25
f 11//25 139//25 9//25
f 140//58 32//58 141//58
f 141//58 32//58 34//58
f 141//59 34//59 142//59
f 142//59 34//59 36//59
f 142//60 36//60 143//60
f 143//60 36//60 38//60
f 143//61 38//61 144//61
f 144//62 38//62 40//62
f 144//63 40//63 145//63
f 145//63 40//63 1//63
f 145//64 1//64 146//64
f 146//64 1//64 3//64
f 146//65 3//65 147//65
f 147//65 3//65 5//65
f 147//66 5//66 148//66
f 148//66 5//66 7//66
f 148//67 7//67 139//67
f 139//67 7//67 9//67
f 140//36 149//36 32//36
f 32//36 149//36 30//36
f 150//68 76//68 151//68
f 151//68 76//68 78//68
f 151//69 78//69 152//69
f 152//69 78//69 80//69
f 152//70 80//70 153//70
f 153//70 80//70 82//70
f 153//71 82//71 154//71
f 154//71 82//71 20//71
f 154//72 20//72 155//72
f 155//72 20//72 22//72
f 155//73 22//73 156//73
f 156//74 22//74 24//74
f 156//75 24//75 157//75
f 157//75 24//75 26//75
f 157//76 26//76 158//76
f 158//76 26//76 28//76
f 158//77 28//77 149//77
f 149//77 28//77 30//77
f 150//47 159//47 76//47
f 76//47 159//47 74//47
f 160//78 55//78 161//78
f 161//78 55//78 57//78
f 161//79 57//79 162//79
f 162//79 57//79 59//79
f 162//80 59//80 163//80
f 163//80 59//80 61//80
f 163//81 61//81 164//81
f 164//81 61//81 63//81
f 164//82 63//82 165//82
f 165//82 63//82 65//82
f 165//83 65//83 166//83
f 166//83 65//83 68//83
f 166//84 68//84 167//84
f 167//84 68//84 70//84
f 167//85 70//85 168//85
f 168//85 70//85 72//85
f 168//86 72//86 159//86
f 159//86 72//86 74//86
f 160//13 138//13 55//13
f 55//13 138//13 53//13
f 138//1 160//1 159//1
f 159//1 160//1 161//1
f 139//1 150//1 149//1
f 150//1 139//1 159//1
f 159//1 139//1 129//1
f 159//1 129//1 138//1
f 138//1 129//1 130//1
f 138//1 130//1 131//1
f 167//1 163//1 166//1
f 166//1 163//1 164//1
f 166//1 164//1 165//1
f 155//1 156//1 150//1
f 149//1 140//1 139//1
f 139//1 140//1 141//1
f 139//1 141//1 142//1
f 142//1 143//1 139//1
f 139//1 143//1 144//1
f 139//1 144//1 145//1
f 161//1 162//1 159//1
f 159//1 162//1 163//1
f 159//1 163//1 168//1
f 168//1 163//1 167//1
f 152//1 153//1 154//1
f 156//1 157//1 150//1
f 150//1 157//1 158//1
f 150//1 158//1 149//1
f 146//1 147//1 145//1
f 145//1 147//1 148//1
f 145//1 148//1 139//1
f 132//1 133//1 131//1
f 131//1 133//1 134//1
f 131//1 134//1 135//1
f 135//1 136//1 131//1
f 131//1 136//1 137//1
f 131//1 137//1 138//1
f 155//1 150//1 154//1
f 154//1 150//1 151//1
f 154//1 151//1 152//1
